<?xml version="1.0" encoding="UTF-8" standalone="no"?>
<!DOCTYPE svg PUBLIC "-//W3C//DTD SVG 1.1//EN"
 "http://www.w3.org/Graphics/SVG/1.1/DTD/svg11.dtd">
<!-- Generated by graphviz version 2.38.0 (20140413.2041)
 -->
<!-- Title: %3 Pages: 1 -->
<svg width="557pt" height="243pt"
 viewBox="0.00 0.00 556.50 242.89" xmlns="http://www.w3.org/2000/svg" xmlns:xlink="http://www.w3.org/1999/xlink">
<g id="graph0" class="graph" transform="scale(1 1) rotate(0) translate(4 238.894)">
<title>%3</title>
<polygon fill="white" stroke="none" points="-4,4 -4,-238.894 552.5,-238.894 552.5,4 -4,4"/>
<!-- &#45;1 -->
<g id="node1" class="node"><title>&#45;1</title>
<polygon fill="lightgray" stroke="black" points="24,-234.894 0,-234.894 0,-216.894 24,-216.894 24,-234.894"/>
<text text-anchor="middle" x="12" y="-223.694" font-family="Times New Roman,serif" font-size="9.00">&#45;1</text>
</g>
<!-- 14 -->
<g id="node19" class="node"><title>14</title>
<ellipse fill="white" stroke="black" cx="264" cy="-162.51" rx="18.2703" ry="18.2703"/>
<text text-anchor="middle" x="264" y="-160.31" font-family="Times New Roman,serif" font-size="9.00">14</text>
</g>
<!-- &#45;1&#45;&gt;14 -->
<g id="edge1" class="edge"><title>&#45;1&#45;&gt;14</title>
<path fill="none" stroke="red" stroke-width="0.253342" d="M24.3394,-219.872C27.1603,-218.814 30.1635,-217.758 33,-216.894 105.209,-194.909 192.499,-177.028 236.212,-168.653"/>
<polygon fill="red" stroke="red" stroke-width="0.253342" points="236.93,-172.079 246.103,-166.778 235.627,-165.201 236.93,-172.079"/>
</g>
<!-- &#45;2 -->
<g id="node2" class="node"><title>&#45;2</title>
<polygon fill="lightgray" stroke="black" points="66,-234.894 42,-234.894 42,-216.894 66,-216.894 66,-234.894"/>
<text text-anchor="middle" x="54" y="-223.694" font-family="Times New Roman,serif" font-size="9.00">&#45;2</text>
</g>
<!-- &#45;2&#45;&gt;14 -->
<g id="edge2" class="edge"><title>&#45;2&#45;&gt;14</title>
<path fill="none" stroke="red" stroke-width="0.205386" d="M66.3715,-219.973C69.1907,-218.91 72.1851,-217.826 75,-216.894 131.713,-198.124 199.325,-180.041 236.353,-170.497"/>
<polygon fill="red" stroke="red" stroke-width="0.205386" points="237.566,-173.799 246.384,-167.927 235.829,-167.018 237.566,-173.799"/>
</g>
<!-- &#45;3 -->
<g id="node3" class="node"><title>&#45;3</title>
<polygon fill="lightgray" stroke="black" points="108,-234.894 84,-234.894 84,-216.894 108,-216.894 108,-234.894"/>
<text text-anchor="middle" x="96" y="-223.694" font-family="Times New Roman,serif" font-size="9.00">&#45;3</text>
</g>
<!-- &#45;3&#45;&gt;14 -->
<g id="edge3" class="edge"><title>&#45;3&#45;&gt;14</title>
<path fill="none" stroke="green" stroke-width="0.303533" d="M108.425,-220.124C111.241,-219.053 114.221,-217.928 117,-216.894 158.885,-201.312 207.677,-183.699 237.18,-173.108"/>
<polygon fill="green" stroke="green" stroke-width="0.303533" points="238.537,-176.339 246.768,-169.669 236.174,-169.75 238.537,-176.339"/>
</g>
<!-- &#45;4 -->
<g id="node4" class="node"><title>&#45;4</title>
<polygon fill="lightgray" stroke="black" points="150,-234.894 126,-234.894 126,-216.894 150,-216.894 150,-234.894"/>
<text text-anchor="middle" x="138" y="-223.694" font-family="Times New Roman,serif" font-size="9.00">&#45;4</text>
</g>
<!-- &#45;4&#45;&gt;14 -->
<g id="edge4" class="edge"><title>&#45;4&#45;&gt;14</title>
<path fill="none" stroke="green" stroke-width="0.323136" d="M150.081,-219.009C170.379,-209.12 211.739,-188.97 238.641,-175.864"/>
<polygon fill="green" stroke="green" stroke-width="0.323136" points="240.375,-178.913 247.832,-171.386 237.309,-172.62 240.375,-178.913"/>
</g>
<!-- &#45;5 -->
<g id="node5" class="node"><title>&#45;5</title>
<polygon fill="lightgray" stroke="black" points="192,-234.894 168,-234.894 168,-216.894 192,-216.894 192,-234.894"/>
<text text-anchor="middle" x="180" y="-223.694" font-family="Times New Roman,serif" font-size="9.00">&#45;5</text>
</g>
<!-- &#45;5&#45;&gt;14 -->
<g id="edge5" class="edge"><title>&#45;5&#45;&gt;14</title>
<path fill="none" stroke="green" stroke-width="0.201387" d="M190.982,-216.869C203.664,-207.601 224.873,-192.103 241.174,-180.19"/>
<polygon fill="green" stroke="green" stroke-width="0.201387" points="243.632,-182.729 249.64,-174.003 239.501,-177.078 243.632,-182.729"/>
</g>
<!-- &#45;6 -->
<g id="node6" class="node"><title>&#45;6</title>
<polygon fill="lightgray" stroke="black" points="234,-234.894 210,-234.894 210,-216.894 234,-216.894 234,-234.894"/>
<text text-anchor="middle" x="222" y="-223.694" font-family="Times New Roman,serif" font-size="9.00">&#45;6</text>
</g>
<!-- &#45;6&#45;&gt;14 -->
<g id="edge6" class="edge"><title>&#45;6&#45;&gt;14</title>
<path fill="none" stroke="green" stroke-width="0.315805" d="M227.491,-216.869C232.702,-209.253 240.793,-197.428 248.035,-186.844"/>
<polygon fill="green" stroke="green" stroke-width="0.315805" points="251.078,-188.594 253.836,-178.364 245.301,-184.641 251.078,-188.594"/>
</g>
<!-- &#45;7 -->
<g id="node7" class="node"><title>&#45;7</title>
<polygon fill="lightgray" stroke="black" points="276,-234.894 252,-234.894 252,-216.894 276,-216.894 276,-234.894"/>
<text text-anchor="middle" x="264" y="-223.694" font-family="Times New Roman,serif" font-size="9.00">&#45;7</text>
</g>
<!-- &#45;7&#45;&gt;14 -->
<g id="edge7" class="edge"><title>&#45;7&#45;&gt;14</title>
<path fill="none" stroke="green" stroke-width="0.1517" d="M264,-216.869C264,-210.305 264,-200.616 264,-191.289"/>
<polygon fill="green" stroke="green" stroke-width="0.1517" points="267.5,-191.097 264,-181.098 260.5,-191.098 267.5,-191.097"/>
</g>
<!-- &#45;8 -->
<g id="node8" class="node"><title>&#45;8</title>
<polygon fill="lightgray" stroke="black" points="318,-234.894 294,-234.894 294,-216.894 318,-216.894 318,-234.894"/>
<text text-anchor="middle" x="306" y="-223.694" font-family="Times New Roman,serif" font-size="9.00">&#45;8</text>
</g>
<!-- &#45;8&#45;&gt;14 -->
<g id="edge8" class="edge"><title>&#45;8&#45;&gt;14</title>
<path fill="none" stroke="red" stroke-width="0.577208" d="M300.509,-216.869C295.298,-209.253 287.207,-197.428 279.965,-186.844"/>
<polygon fill="red" stroke="red" stroke-width="0.577208" points="282.699,-184.641 274.164,-178.364 276.922,-188.594 282.699,-184.641"/>
</g>
<!-- &#45;9 -->
<g id="node9" class="node"><title>&#45;9</title>
<polygon fill="lightgray" stroke="black" points="360,-234.894 336,-234.894 336,-216.894 360,-216.894 360,-234.894"/>
<text text-anchor="middle" x="348" y="-223.694" font-family="Times New Roman,serif" font-size="9.00">&#45;9</text>
</g>
<!-- &#45;9&#45;&gt;14 -->
<g id="edge9" class="edge"><title>&#45;9&#45;&gt;14</title>
<path fill="none" stroke="red" stroke-width="0.279751" d="M337.018,-216.869C324.336,-207.601 303.127,-192.103 286.826,-180.19"/>
<polygon fill="red" stroke="red" stroke-width="0.279751" points="288.499,-177.078 278.36,-174.003 284.368,-182.729 288.499,-177.078"/>
</g>
<!-- &#45;10 -->
<g id="node10" class="node"><title>&#45;10</title>
<polygon fill="lightgray" stroke="black" points="407.5,-234.894 378.5,-234.894 378.5,-216.894 407.5,-216.894 407.5,-234.894"/>
<text text-anchor="middle" x="393" y="-223.694" font-family="Times New Roman,serif" font-size="9.00">&#45;10</text>
</g>
<!-- &#45;10&#45;&gt;14 -->
<g id="edge10" class="edge"><title>&#45;10&#45;&gt;14</title>
<path fill="none" stroke="red" stroke-width="0.46767" d="M378.202,-217.853C356.512,-207.531 315.794,-188.156 289.297,-175.547"/>
<polygon fill="red" stroke="red" stroke-width="0.46767" points="290.774,-172.374 280.24,-171.237 287.766,-178.695 290.774,-172.374"/>
</g>
<!-- &#45;11 -->
<g id="node11" class="node"><title>&#45;11</title>
<polygon fill="lightgray" stroke="black" points="454.5,-234.894 425.5,-234.894 425.5,-216.894 454.5,-216.894 454.5,-234.894"/>
<text text-anchor="middle" x="440" y="-223.694" font-family="Times New Roman,serif" font-size="9.00">&#45;11</text>
</g>
<!-- &#45;11&#45;&gt;14 -->
<g id="edge11" class="edge"><title>&#45;11&#45;&gt;14</title>
<path fill="none" stroke="green" stroke-width="0.150841" d="M425.297,-219.766C395.694,-209.442 328.528,-186.016 290.873,-172.882"/>
<polygon fill="green" stroke="green" stroke-width="0.150841" points="291.685,-169.459 281.091,-169.47 289.38,-176.069 291.685,-169.459"/>
</g>
<!-- &#45;12 -->
<g id="node12" class="node"><title>&#45;12</title>
<polygon fill="lightgray" stroke="black" points="501.5,-234.894 472.5,-234.894 472.5,-216.894 501.5,-216.894 501.5,-234.894"/>
<text text-anchor="middle" x="487" y="-223.694" font-family="Times New Roman,serif" font-size="9.00">&#45;12</text>
</g>
<!-- &#45;12&#45;&gt;14 -->
<g id="edge12" class="edge"><title>&#45;12&#45;&gt;14</title>
<path fill="none" stroke="green" stroke-width="0.276503" d="M472.453,-219.653C469.659,-218.698 466.748,-217.738 464,-216.894 403.077,-198.196 330.592,-179.787 291.794,-170.238"/>
<polygon fill="green" stroke="green" stroke-width="0.276503" points="292.328,-166.766 281.782,-167.787 290.663,-173.565 292.328,-166.766"/>
</g>
<!-- &#45;13 -->
<g id="node13" class="node"><title>&#45;13</title>
<polygon fill="lightgray" stroke="black" points="548.5,-234.894 519.5,-234.894 519.5,-216.894 548.5,-216.894 548.5,-234.894"/>
<text text-anchor="middle" x="534" y="-223.694" font-family="Times New Roman,serif" font-size="9.00">&#45;13</text>
</g>
<!-- &#45;13&#45;&gt;14 -->
<g id="edge13" class="edge"><title>&#45;13&#45;&gt;14</title>
<path fill="none" stroke="green" stroke-width="0.210512" d="M519.484,-219.546C516.688,-218.601 513.768,-217.672 511,-216.894 432.629,-194.884 338.108,-176.735 292.019,-168.413"/>
<polygon fill="green" stroke="green" stroke-width="0.210512" points="292.62,-164.965 282.16,-166.65 291.388,-171.856 292.62,-164.965"/>
</g>
<!-- 0 -->
<g id="node14" class="node"><title>0</title>
<ellipse fill="lightblue" stroke="black" cx="144" cy="-86.9117" rx="14.7" ry="14.7"/>
<text text-anchor="middle" x="144" y="-84.7117" font-family="Times New Roman,serif" font-size="9.00">0</text>
</g>
<!-- 1 -->
<g id="node15" class="node"><title>1</title>
<ellipse fill="lightblue" stroke="black" cx="192" cy="-86.9117" rx="14.7" ry="14.7"/>
<text text-anchor="middle" x="192" y="-84.7117" font-family="Times New Roman,serif" font-size="9.00">1</text>
</g>
<!-- 2 -->
<g id="node16" class="node"><title>2</title>
<ellipse fill="lightblue" stroke="black" cx="240" cy="-86.9117" rx="14.7" ry="14.7"/>
<text text-anchor="middle" x="240" y="-84.7117" font-family="Times New Roman,serif" font-size="9.00">2</text>
</g>
<!-- 3 -->
<g id="node17" class="node"><title>3</title>
<ellipse fill="lightblue" stroke="black" cx="288" cy="-86.9117" rx="14.7" ry="14.7"/>
<text text-anchor="middle" x="288" y="-84.7117" font-family="Times New Roman,serif" font-size="9.00">3</text>
</g>
<!-- 4 -->
<g id="node18" class="node"><title>4</title>
<ellipse fill="lightblue" stroke="black" cx="355" cy="-14.8492" rx="14.7" ry="14.7"/>
<text text-anchor="middle" x="355" y="-12.6492" font-family="Times New Roman,serif" font-size="9.00">4</text>
</g>
<!-- 14&#45;&gt;0 -->
<g id="edge14" class="edge"><title>14&#45;&gt;0</title>
<path fill="none" stroke="green" stroke-width="0.295353" d="M247.813,-153.715C228.265,-144.032 194.688,-126.53 168,-108.125 166.318,-106.965 164.614,-105.711 162.931,-104.416"/>
<polygon fill="green" stroke="green" stroke-width="0.295353" points="164.837,-101.454 154.879,-97.8363 160.407,-106.874 164.837,-101.454"/>
</g>
<!-- 14&#45;&gt;1 -->
<g id="edge15" class="edge"><title>14&#45;&gt;1</title>
<path fill="none" stroke="red" stroke-width="0.411995" d="M251.459,-148.69C239.738,-136.709 222.141,-118.722 209.13,-105.422"/>
<polygon fill="red" stroke="red" stroke-width="0.411995" points="211.573,-102.914 202.078,-98.213 206.569,-107.809 211.573,-102.914"/>
</g>
<!-- 14&#45;&gt;2 -->
<g id="edge16" class="edge"><title>14&#45;&gt;2</title>
<path fill="none" stroke="red" stroke-width="0.171217" d="M258.554,-144.809C255.326,-134.91 251.185,-122.212 247.635,-111.324"/>
<polygon fill="red" stroke="red" stroke-width="0.171217" points="250.888,-110.013 244.461,-101.59 244.233,-112.183 250.888,-110.013"/>
</g>
<!-- 14&#45;&gt;3 -->
<g id="edge17" class="edge"><title>14&#45;&gt;3</title>
<path fill="none" stroke="red" stroke-width="0.206146" d="M269.446,-144.809C272.674,-134.91 276.815,-122.212 280.365,-111.324"/>
<polygon fill="red" stroke="red" stroke-width="0.206146" points="283.767,-112.183 283.539,-101.59 277.112,-110.013 283.767,-112.183"/>
</g>
<!-- 14&#45;&gt;4 -->
<g id="edge18" class="edge"><title>14&#45;&gt;4</title>
<path fill="none" stroke="red" stroke-width="0.266766" stroke-dasharray="1,5" d="M276.989,-149.238C287.373,-138.95 301.826,-123.512 312,-108.125 326.708,-85.8805 339.016,-57.8028 346.643,-38.4952"/>
<polygon fill="red" stroke="red" stroke-width="0.266766" points="349.965,-39.6095 350.289,-29.0196 343.432,-37.0957 349.965,-39.6095"/>
</g>
<!-- 120 -->
<g id="node20" class="node"><title>120</title>
<ellipse fill="white" stroke="black" cx="380" cy="-86.9117" rx="21.4286" ry="21.4286"/>
<text text-anchor="middle" x="380" y="-84.7117" font-family="Times New Roman,serif" font-size="9.00">120</text>
</g>
<!-- 14&#45;&gt;120 -->
<g id="edge19" class="edge"><title>14&#45;&gt;120</title>
<path fill="none" stroke="green" stroke-width="0.359722" d="M279.165,-151.888C298.032,-139.918 330.562,-119.278 353.566,-104.683"/>
<polygon fill="green" stroke="green" stroke-width="0.359722" points="355.6,-107.538 362.169,-99.225 351.85,-101.627 355.6,-107.538"/>
</g>
<!-- 120&#45;&gt;4 -->
<g id="edge20" class="edge"><title>120&#45;&gt;4</title>
<path fill="none" stroke="red" stroke-width="0.292213" d="M373.169,-66.7668C370.059,-58.0533 366.357,-47.6762 363.107,-38.5704"/>
<polygon fill="red" stroke="red" stroke-width="0.292213" points="366.345,-37.2284 359.688,-28.9863 359.752,-39.581 366.345,-37.2284"/>
</g>
</g>
</svg>
